<svg width="200" height="200" viewBox="0 0 200 200" fill="none" xmlns="http://www.w3.org/2000/svg">
<g clip-path="url(#clip0_323_1110)">
<path d="M107.778 128.095V202H34C34 161.183 67.0314 128.095 107.778 128.095ZM107.778 118.857C77.2061 118.857 52.4444 94.0529 52.4444 63.4286C52.4444 32.8043 77.2061 8 107.778 8C138.349 8 163.111 32.8043 163.111 63.4286C163.111 94.0529 138.349 118.857 107.778 118.857ZM190.778 155.81H200V202H126.222V155.81H135.444V146.571C135.444 131.265 147.831 118.857 163.111 118.857C178.391 118.857 190.778 131.265 190.778 146.571V155.81ZM172.333 155.81V146.571C172.333 141.469 168.205 137.333 163.111 137.333C158.018 137.333 153.889 141.469 153.889 146.571V155.81H172.333Z" fill="#0B5CD5"/>
</g>
<defs>
<clipPath id="clip0_323_1110">
<rect width="200" height="200" fill="white"/>
</clipPath>
</defs>
</svg>
