<svg width="200" height="178" viewBox="0 0 200 178" fill="none" xmlns="http://www.w3.org/2000/svg">
<path d="M139.792 29L171.111 60.3194C172.431 61.6389 172.431 63.7917 171.111 65.1111L95.2778 140.944L63.0556 144.521C58.75 145.007 55.1042 141.361 55.5903 137.056L59.1667 104.833L135 29C136.319 27.6806 138.472 27.6806 139.792 29ZM196.042 21.0486L179.097 4.10418C173.819 -1.1736 165.243 -1.1736 159.931 4.10418L147.639 16.3958C146.319 17.7153 146.319 19.8681 147.639 21.1875L178.958 52.5069C180.278 53.8264 182.431 53.8264 183.75 52.5069L196.042 40.2153C201.319 34.9028 201.319 26.3264 196.042 21.0486ZM133.333 120.319V155.667H22.2222V44.5556H102.014C103.125 44.5556 104.167 44.1042 104.965 43.3403L118.854 29.4514C121.493 26.8125 119.618 22.3333 115.903 22.3333H16.6667C7.46528 22.3333 0 29.7986 0 39V161.222C0 170.424 7.46528 177.889 16.6667 177.889H138.889C148.09 177.889 155.556 170.424 155.556 161.222V106.431C155.556 102.715 151.076 100.875 148.437 103.479L134.549 117.368C133.785 118.167 133.333 119.208 133.333 120.319Z" fill="#0B5CD5"/>
</svg>
