<svg width="200" height="200" viewBox="0 0 200 200" fill="none" xmlns="http://www.w3.org/2000/svg">
<path d="M25 75V46.875C25 42.731 26.6462 38.7567 29.5765 35.8265C32.5067 32.8962 36.481 31.25 40.625 31.25H70.2695C73.3546 31.2501 76.3707 32.1635 78.9375 33.875L89.8125 41.125C92.3793 42.8365 95.3954 43.7499 98.4805 43.75H159.375C163.519 43.75 167.493 45.3962 170.424 48.3265C173.354 51.2567 175 55.231 175 59.375V75" stroke="#B3B3B3" stroke-opacity="0.733333" stroke-width="12.5" stroke-linecap="round" stroke-linejoin="round"/>
<path d="M187.461 88.4961L181.125 153.125C181.125 157.264 179.483 161.234 176.558 164.164C173.634 167.093 169.667 168.743 165.528 168.75H34.4729C30.3336 168.743 26.3663 167.093 23.442 164.164C20.5176 161.234 18.8752 157.264 18.8752 153.125L12.5393 88.4961C12.4018 86.7761 12.6219 85.0462 13.1857 83.4154C13.7496 81.7846 14.6449 80.2882 15.8155 79.0204C16.986 77.7526 18.4064 76.7409 19.9871 76.049C21.5678 75.3571 23.2747 74.9999 25.0002 75H175.039C176.762 75.0053 178.464 75.3664 180.04 76.0607C181.616 76.755 183.032 77.7675 184.198 79.0347C185.365 80.3019 186.256 81.7965 186.818 83.4246C187.379 85.0527 187.598 86.7793 187.461 88.4961Z" stroke="#B3B3B3" stroke-opacity="0.733333" stroke-width="12.5" stroke-linecap="round" stroke-linejoin="round"/>
</svg>
