<svg width="150" height="184" viewBox="0 0 150 184" fill="none" xmlns="http://www.w3.org/2000/svg">
<path d="M58.3334 8.66667H91.6667" stroke="#0B5CD5" stroke-width="16.6667" stroke-linecap="round" stroke-linejoin="round"/>
<path d="M75 108.667V75.3333" stroke="#0B5CD5" stroke-width="16.6667" stroke-linecap="round" stroke-linejoin="round"/>
<path d="M8.33337 100.333C10.3739 84.1331 18.2889 69.2451 30.5771 58.4928C42.8654 47.7406 58.6723 41.872 75 42C85.7838 42.0115 96.4038 44.6387 105.949 49.6563C115.494 54.674 123.68 61.9323 129.804 70.8085C135.927 79.6848 139.807 89.9141 141.108 100.619C142.41 111.324 141.096 122.185 137.278 132.27C133.46 142.355 127.252 151.364 119.188 158.523C111.123 165.682 101.442 170.778 90.9756 173.373C80.5089 175.969 69.5687 175.987 59.0936 173.425C48.6185 170.864 38.9212 165.799 30.8334 158.667L8.33337 138.667" stroke="#0B5CD5" stroke-width="16.6667" stroke-linecap="round" stroke-linejoin="round"/>
<path d="M50 133.667H8.33337V175.333" stroke="#0B5CD5" stroke-width="16.6667" stroke-linecap="round" stroke-linejoin="round"/>
</svg>
