<svg width="150" height="150" viewBox="0 0 150 150" fill="none" xmlns="http://www.w3.org/2000/svg">
<path d="M133.333 16.6667H116.667V0H33.3333V16.6667H16.6667C7.5 16.6667 0 24.1667 0 33.3333V41.6667C0 62.9167 16 80.25 36.5833 82.8333C39.2188 89.078 43.335 94.5871 48.5764 98.8848C53.8177 103.182 60.0266 106.139 66.6667 107.5V133.333H33.3333V150H116.667V133.333H83.3333V107.5C89.9734 106.139 96.1823 103.182 101.424 98.8848C106.665 94.5871 110.781 89.078 113.417 82.8333C134 80.25 150 62.9167 150 41.6667V33.3333C150 24.1667 142.5 16.6667 133.333 16.6667ZM16.6667 41.6667V33.3333H33.3333V65.1667C23.6667 61.6667 16.6667 52.5 16.6667 41.6667ZM133.333 41.6667C133.333 52.5 126.333 61.6667 116.667 65.1667V33.3333H133.333V41.6667Z" fill="#0B5CD5"/>
</svg>
