<svg width="188" height="138" viewBox="0 0 188 138" fill="none" xmlns="http://www.w3.org/2000/svg">
<path d="M182.723 64.8515C174.438 27.3945 161.969 7.40234 143.473 1.9414C139.585 0.800962 135.552 0.231213 131.5 0.249992C126.145 0.249992 121.481 1.55468 116.547 2.93749C110.602 4.60546 103.848 6.49999 94.0002 6.49999C84.1526 6.49999 77.3948 4.60937 71.4377 2.9414C66.5002 1.55468 61.8401 0.249992 56.5002 0.249992C52.3105 0.235464 48.1391 0.803398 44.1057 1.93749C25.7073 7.37499 13.2463 27.3594 4.84008 64.8281C-4.19899 105.148 0.250233 130.605 17.3166 136.512C19.656 137.336 22.1174 137.762 24.5979 137.77C36.2893 137.77 45.6643 128.031 52.0705 120.059C59.3088 111.035 67.7815 106.457 94.0002 106.457C117.418 106.457 127.11 109.633 135.481 120.059C140.742 126.613 145.715 131.199 150.676 134.086C157.274 137.922 163.867 138.773 170.27 136.574C180.356 133.133 186.137 124.035 187.457 109.527C188.461 98.4023 186.914 83.789 182.723 64.8515ZM75.2502 62.75H62.7502V75.25C62.7502 76.9076 62.0917 78.4973 60.9196 79.6694C59.7475 80.8415 58.1578 81.5 56.5002 81.5C54.8426 81.5 53.2529 80.8415 52.0808 79.6694C50.9087 78.4973 50.2502 76.9076 50.2502 75.25V62.75H37.7502C36.0926 62.75 34.5029 62.0915 33.3308 60.9194C32.1587 59.7473 31.5002 58.1576 31.5002 56.5C31.5002 54.8424 32.1587 53.2527 33.3308 52.0806C34.5029 50.9085 36.0926 50.25 37.7502 50.25H50.2502V37.75C50.2502 36.0924 50.9087 34.5027 52.0808 33.3306C53.2529 32.1585 54.8426 31.5 56.5002 31.5C58.1578 31.5 59.7475 32.1585 60.9196 33.3306C62.0917 34.5027 62.7502 36.0924 62.7502 37.75V50.25H75.2502C76.9078 50.25 78.4975 50.9085 79.6696 52.0806C80.8417 53.2527 81.5002 54.8424 81.5002 56.5C81.5002 58.1576 80.8417 59.7473 79.6696 60.9194C78.4975 62.0915 76.9078 62.75 75.2502 62.75ZM108.063 64.3125C106.518 64.3125 105.007 63.8543 103.722 62.9958C102.438 62.1374 101.436 60.9172 100.845 59.4897C100.254 58.0622 100.099 56.4913 100.4 54.9758C100.702 53.4604 101.446 52.0683 102.538 50.9757C103.631 49.8831 105.023 49.139 106.539 48.8376C108.054 48.5362 109.625 48.6909 111.052 49.2822C112.48 49.8735 113.7 50.8748 114.559 52.1596C115.417 53.4444 115.875 54.9548 115.875 56.5C115.875 58.572 115.052 60.5591 113.587 62.0243C112.122 63.4894 110.135 64.3125 108.063 64.3125ZM125.25 81.5C123.704 81.5 122.193 81.0413 120.908 80.182C119.623 79.3227 118.621 78.1014 118.031 76.6727C117.44 75.244 117.286 73.6722 117.589 72.1561C117.892 70.6401 118.638 69.2481 119.733 68.1563C120.827 67.0645 122.221 66.322 123.738 66.0227C125.255 65.7235 126.826 65.881 128.254 66.4753C129.681 67.0696 130.899 68.074 131.756 69.3613C132.612 70.6486 133.067 72.161 133.063 73.707C133.058 75.7756 132.232 77.7578 130.768 79.2187C129.303 80.6796 127.319 81.5 125.25 81.5ZM125.25 47.125C123.705 47.125 122.195 46.6668 120.91 45.8083C119.625 44.9499 118.624 43.7298 118.032 42.3022C117.441 40.8747 117.286 39.3038 117.588 37.7883C117.889 36.2729 118.633 34.8808 119.726 33.7882C120.819 32.6956 122.211 31.9516 123.726 31.6501C125.242 31.3487 126.812 31.5034 128.24 32.0947C129.667 32.686 130.888 33.6873 131.746 34.9721C132.605 36.2569 133.063 37.7673 133.063 39.3125C133.063 41.3845 132.24 43.3716 130.775 44.8368C129.309 46.3019 127.322 47.125 125.25 47.125ZM142.438 64.3125C140.893 64.3125 139.382 63.8543 138.097 62.9958C136.813 62.1374 135.811 60.9172 135.22 59.4897C134.629 58.0622 134.474 56.4913 134.775 54.9758C135.077 53.4604 135.821 52.0683 136.913 50.9757C138.006 49.8831 139.398 49.139 140.914 48.8376C142.429 48.5362 144 48.6909 145.427 49.2822C146.855 49.8735 148.075 50.8748 148.934 52.1596C149.792 53.4444 150.25 54.9548 150.25 56.5C150.25 58.572 149.427 60.5591 147.962 62.0243C146.497 63.4894 144.51 64.3125 142.438 64.3125Z" fill="#0B5CD5"/>
</svg>
