<svg width="219" height="219" viewBox="0 0 219 219" fill="none" xmlns="http://www.w3.org/2000/svg">
<g clip-path="url(#clip0_294_1110)">
<path fill-rule="evenodd" clip-rule="evenodd" d="M73 191.625C62.9625 191.625 54.75 183.413 54.75 173.375V63.875H164.25V173.375C164.25 183.413 156.037 191.625 146 191.625H73ZM141.438 36.5H173.375V54.75H45.625V36.5H77.5625L86.6875 27.375H132.312L141.438 36.5ZM84 141.7L98.7181 126.982L84.0636 112.327L95.2998 101.091L109.954 115.746L124.7 101L135.936 112.236L121.191 126.982L136 141.791L124.764 153.028L109.954 138.218L95.2362 152.936L84 141.7Z" fill="#0B5CD5"/>
</g>
<defs>
<clipPath id="clip0_294_1110">
<rect width="219" height="219" fill="white"/>
</clipPath>
</defs>
</svg>
