<svg width="200" height="160" viewBox="0 0 200 160" fill="none" xmlns="http://www.w3.org/2000/svg">
<path d="M99.9998 125C76.2967 125 57.1092 106.653 55.3436 83.4031L22.5623 58.0688C18.2529 63.475 14.2873 69.1906 11.0873 75.4406C10.3724 76.8547 9.99998 78.417 9.99998 80.0016C9.99998 81.5861 10.3724 83.1484 11.0873 84.5625C28.0342 117.628 61.5842 140 99.9998 140C108.409 140 116.522 138.75 124.34 136.731L108.125 124.184C105.447 124.702 102.727 124.975 99.9998 125ZM198.069 143.156L163.522 116.456C174.016 107.612 182.647 96.7697 188.912 84.5594C189.627 83.1453 190 81.583 190 79.9984C190 78.4139 189.627 76.8516 188.912 75.4375C171.965 42.3719 138.415 20 99.9998 20C83.9107 20.0195 68.083 24.0699 53.9623 31.7812L14.2061 1.05312C13.6876 0.649707 13.0948 0.352404 12.4614 0.1782C11.828 0.00399566 11.1665 -0.0436944 10.5147 0.0378549C9.86292 0.119404 9.23356 0.328594 8.66263 0.653471C8.0917 0.978348 7.59037 1.41254 7.18731 1.93125L1.05294 9.82812C0.239183 10.8749 -0.125456 12.2021 0.0392199 13.5178C0.203895 14.8334 0.884398 16.0298 1.93106 16.8437L185.794 158.947C186.312 159.35 186.905 159.648 187.538 159.822C188.172 159.996 188.833 160.044 189.485 159.962C190.137 159.881 190.766 159.671 191.337 159.347C191.908 159.022 192.409 158.587 192.812 158.069L198.95 150.172C199.763 149.125 200.127 147.797 199.962 146.482C199.797 145.166 199.116 143.97 198.069 143.156ZM140.656 98.7813L128.375 89.2875C129.409 86.2983 129.958 83.1628 130 80C130.061 75.3696 129.035 70.7894 127.005 66.6273C124.974 62.4653 121.996 58.8374 118.31 56.0351C114.623 53.2327 107.5 49.5 103 49C98.4464 48.1576 87.9763 47.5 81.4178 53C83.3022 55.5534 83.5 56.0351 87.9763 58.0688C87.9297 59.1248 92.0904 63.125 94.5186 63.125L71.5154 45.3469C79.506 38.6694 89.5865 35.0077 99.9998 35C105.91 34.9967 111.763 36.1584 117.224 38.4187C122.686 40.679 127.648 43.9936 131.827 48.1729C136.006 52.3522 139.321 57.3142 141.581 62.7754C143.841 68.2365 145.003 74.0896 145 80C145 86.7594 143.347 93.0594 140.656 98.7844V98.7813Z" fill="#0B5CD5"/>
</svg>
