<svg width="200" height="134" viewBox="0 0 200 134" fill="none" xmlns="http://www.w3.org/2000/svg">
<path fill-rule="evenodd" clip-rule="evenodd" d="M198.791 61.9306C179.962 25.191 142.684 0.333344 99.9998 0.333344C57.3158 0.333344 20.0276 25.2083 1.20814 61.934C0.413844 63.5052 0 65.2412 0 67.0017C0 68.7623 0.413844 70.4982 1.20814 72.0695C20.038 108.809 57.3158 133.667 99.9998 133.667C142.684 133.667 179.972 108.792 198.791 72.066C199.586 70.4948 200 68.7588 200 66.9983C200 65.2377 199.586 63.5018 198.791 61.9306ZM99.9998 117C90.1107 117 80.4437 114.068 72.2213 108.573C63.9988 103.079 57.5902 95.2705 53.8058 86.1342C50.0215 76.9979 49.0313 66.9445 50.9605 57.2455C52.8898 47.5464 57.6518 38.6373 64.6445 31.6447C71.6371 24.652 80.5462 19.89 90.2453 17.9607C99.9443 16.0315 109.998 17.0217 119.134 20.806C128.27 24.5904 136.079 30.999 141.573 39.2215C147.067 47.444 150 57.1109 150 67C150.003 73.567 148.712 80.0702 146.2 86.138C143.689 92.2057 140.006 97.7189 135.362 102.362C130.719 107.006 125.205 110.689 119.138 113.201C113.07 115.712 106.567 117.003 99.9998 117ZM99.5 33C111.263 33 121.61 39.0625 127.586 48.2335C129.252 50.6855 130.593 53.3637 131.56 56.2034C133.802 62.7888 133.923 69.9117 131.905 76.5694C129.888 83.2271 125.833 89.0845 120.312 93.3171C114.791 97.5496 108.081 99.9442 101.128 100.164C97.6037 100.275 94.1066 99.8249 90.7622 98.849C76.4979 95.0055 66 81.9787 66 66.5C66 47.9985 80.9985 33 99.5 33Z" fill="#0B5CD5"/>
</svg>
