<svg width="191" height="161" viewBox="0 0 191 161" fill="none" xmlns="http://www.w3.org/2000/svg">
<path d="M51.8125 80.5C51.8125 78.5689 52.5796 76.7169 53.9451 75.3514C55.3106 73.9859 57.1626 73.2188 59.0938 73.2188H124.625V25.8906C124.625 11.3281 109.248 0.40625 95.5 0.40625H26.3281C19.5715 0.413478 13.0936 3.10075 8.31593 7.87843C3.53825 12.6561 0.850978 19.134 0.84375 25.8906V135.109C0.850978 141.866 3.53825 148.344 8.31593 153.122C13.0936 157.899 19.5715 160.587 26.3281 160.594H99.1406C105.897 160.587 112.375 157.899 117.153 153.122C121.931 148.344 124.618 141.866 124.625 135.109V87.7812H59.0938C57.1626 87.7812 55.3106 87.0141 53.9451 85.6486C52.5796 84.2831 51.8125 82.4311 51.8125 80.5ZM188.022 75.3531L151.616 38.9468C150.239 37.639 148.406 36.9206 146.507 36.9449C144.609 36.9692 142.795 37.7343 141.452 39.0769C140.109 40.4196 139.344 42.2337 139.32 44.1324C139.296 46.031 140.014 47.8641 141.322 49.2407L165.295 73.2188H124.625V87.7812H165.295L141.322 111.759C140.617 112.429 140.054 113.232 139.665 114.123C139.276 115.014 139.069 115.973 139.056 116.945C139.044 117.917 139.226 118.881 139.592 119.781C139.958 120.682 140.501 121.499 141.188 122.187C141.876 122.874 142.693 123.417 143.594 123.783C144.494 124.149 145.458 124.331 146.43 124.319C147.402 124.306 148.361 124.099 149.252 123.71C150.143 123.321 150.946 122.758 151.616 122.053L188.022 85.6469C189.386 84.2816 190.153 82.4303 190.153 80.5C190.153 78.5697 189.386 76.7184 188.022 75.3531Z" fill="#0B5CD5"/>
</svg>
